<svg width="80" height="76" viewBox="0 0 80 76" fill="none" xmlns="http://www.w3.org/2000/svg">
<circle cx="34.2466" cy="34.2466" r="34.2466" fill="#FF9D00"/>
<circle cx="45.7534" cy="40.822" r="34.2466" fill="#4B9B9B"/>
<path d="M31.4897 33.1049C33.4512 33.1049 34.8802 33.4901 35.7768 34.2607C36.6735 35.0312 37.1218 36.117 37.1218 37.518C37.1218 38.1345 37.0167 38.7299 36.8066 39.3043C36.6104 39.8647 36.2812 40.3691 35.8189 40.8174C35.3565 41.2657 34.7401 41.623 33.9695 41.8892C33.199 42.1413 32.2533 42.2674 31.1325 42.2674H29.4093V48.1096H27.5179V33.1049H31.4897ZM31.3216 34.723H29.4093V40.6493H30.9223C31.875 40.6493 32.6666 40.5512 33.297 40.3551C33.9275 40.1449 34.3968 39.8157 34.7051 39.3673C35.0133 38.919 35.1674 38.3306 35.1674 37.6021C35.1674 36.6354 34.8592 35.9139 34.2427 35.4375C33.6263 34.9612 32.6526 34.723 31.3216 34.723ZM47.1558 43.8436C46.7075 44.8383 46.2522 45.6719 45.7899 46.3444C45.3415 47.0028 44.8091 47.5002 44.1927 47.8364C43.5763 48.1587 42.7917 48.3198 41.839 48.3198C41.4467 48.3198 41.0755 48.2917 40.7252 48.2357C40.389 48.1797 40.0808 48.1026 39.8006 48.0045V46.1342C40.0808 46.2603 40.382 46.3654 40.7042 46.4494C41.0264 46.5195 41.3627 46.5545 41.7129 46.5545C42.2313 46.5545 42.6726 46.4845 43.0369 46.3444C43.4151 46.1902 43.7444 45.9451 44.0246 45.6088C44.3188 45.2726 44.592 44.8243 44.8442 44.2639L39.065 33.1049H41.1455L45.3275 41.3638C45.3836 41.4618 45.4396 41.5809 45.4956 41.721C45.5517 41.8471 45.6077 41.9802 45.6638 42.1203C45.7338 42.2604 45.7899 42.3935 45.8319 42.5196H45.9159C45.958 42.4215 46 42.3095 46.042 42.1834C46.0981 42.0433 46.1471 41.9102 46.1891 41.7841C46.2452 41.644 46.2942 41.5249 46.3362 41.4268L49.9508 33.1049H51.9473L47.1558 43.8436ZM60.8421 34.5549C60.0435 34.5549 59.322 34.695 58.6775 34.9752C58.0331 35.2414 57.4867 35.6407 57.0383 36.1731C56.59 36.6914 56.2468 37.3289 56.0086 38.0854C55.7704 38.828 55.6513 39.6686 55.6513 40.6072C55.6513 41.8401 55.8405 42.9119 56.2187 43.8225C56.611 44.7332 57.1854 45.4337 57.942 45.9241C58.7125 46.4144 59.6722 46.6596 60.8211 46.6596C61.4795 46.6596 62.103 46.6035 62.6914 46.4915C63.2798 46.3794 63.8542 46.2393 64.4146 46.0712V47.7103C63.8542 47.9205 63.2728 48.0746 62.6704 48.1727C62.082 48.2707 61.3744 48.3198 60.5479 48.3198C59.0208 48.3198 57.7458 48.0045 56.7231 47.3741C55.7004 46.7436 54.9298 45.847 54.4115 44.6842C53.9071 43.5213 53.6549 42.1553 53.6549 40.5862C53.6549 39.4514 53.809 38.4147 54.1172 37.476C54.4395 36.5373 54.9018 35.7247 55.5042 35.0382C56.1207 34.3517 56.8772 33.8264 57.7739 33.4621C58.6705 33.0838 59.7002 32.8947 60.8631 32.8947C61.6336 32.8947 62.3762 32.9718 63.0907 33.1259C63.8052 33.28 64.4427 33.4971 65.0031 33.7773L64.2465 35.3745C63.7842 35.1643 63.2658 34.9752 62.6914 34.8071C62.131 34.639 61.5146 34.5549 60.8421 34.5549Z" fill="#FF9D00"/>
<circle cx="34.2466" cy="34.2466" r="34.2466" fill="#FF9D00" fill-opacity="0.85"/>
<path d="M15.3789 41.0823C15.1075 41.0823 14.9107 41.0212 14.7885 40.8991C14.68 40.7769 14.6257 40.5937 14.6257 40.3495V27.9933C14.6257 27.7354 14.68 27.5454 14.7885 27.4233C14.9107 27.3012 15.1075 27.2401 15.3789 27.2401H23.847C24.1184 27.2401 24.3017 27.2944 24.3967 27.4029C24.5052 27.5115 24.5595 27.6947 24.5595 27.9526V28.5022C24.5595 28.76 24.5052 28.95 24.3967 29.0721C24.3017 29.1807 24.1184 29.235 23.847 29.235H17.2313V33.1841H22.0353C22.3068 33.1841 22.4967 33.2384 22.6053 33.3469C22.7139 33.4555 22.7682 33.6387 22.7682 33.8966V34.4055C22.7682 34.6633 22.7139 34.8533 22.6053 34.9754C22.4967 35.084 22.3068 35.1383 22.0353 35.1383H17.2313V39.1077H23.8267C24.0981 39.1077 24.2881 39.1688 24.3967 39.2909C24.5052 39.3995 24.5595 39.5827 24.5595 39.8405V40.3902C24.5595 40.6344 24.5052 40.8109 24.3967 40.9194C24.2881 41.028 24.0981 41.0823 23.8267 41.0823H15.3789ZM27.7182 41.0823C27.4468 41.0823 27.25 41.0212 27.1279 40.8991C27.0193 40.7769 26.965 40.5937 26.965 40.3495V27.9933C26.965 27.7354 27.0193 27.5454 27.1279 27.4233C27.25 27.3012 27.4536 27.2401 27.7386 27.2401H28.6749C28.8649 27.2401 29.0142 27.2672 29.1228 27.3215C29.2313 27.3758 29.3399 27.4844 29.4485 27.6472L36.166 36.9703V27.9933C36.166 27.7354 36.2203 27.5454 36.3289 27.4233C36.451 27.3012 36.6478 27.2401 36.9192 27.2401H37.9981C38.2695 27.2401 38.4663 27.3012 38.5884 27.4233C38.7105 27.5454 38.7716 27.7354 38.7716 27.9933V40.3495C38.7716 40.5937 38.7105 40.7769 38.5884 40.8991C38.4798 41.0212 38.283 41.0823 37.9981 41.0823H37.0413C36.8513 41.0823 36.7088 41.0619 36.6138 41.0212C36.5188 40.9669 36.4103 40.8584 36.2881 40.6955L29.5706 31.3927V40.3495C29.5706 40.5937 29.5095 40.7769 29.3874 40.8991C29.2788 41.0212 29.0821 41.0823 28.7971 41.0823H27.7182ZM48.6289 41.3876C46.3219 41.3876 44.5373 40.7634 43.2752 39.5149C42.0132 38.2663 41.3821 36.4818 41.3821 34.1612C41.3821 31.8542 42.0132 30.0764 43.2752 28.8279C44.5509 27.5658 46.3354 26.9347 48.6289 26.9347C49.5517 26.9347 50.4135 27.0297 51.2141 27.2197C52.0148 27.4097 52.6798 27.6811 53.209 28.034C53.3312 28.1154 53.3922 28.2036 53.3922 28.2986C53.3922 28.3665 53.3651 28.4479 53.3108 28.5429L52.7205 29.5607C52.6391 29.6828 52.5576 29.7439 52.4762 29.7439C52.4355 29.7439 52.3473 29.71 52.2116 29.6421C51.2888 29.1264 50.1895 28.8686 48.9139 28.8686C47.3668 28.8686 46.1522 29.3096 45.2701 30.1917C44.388 31.0603 43.947 32.3834 43.947 34.1612C43.947 35.9525 44.3745 37.2825 45.2294 38.151C46.0844 39.0195 47.2583 39.4538 48.751 39.4538C49.2939 39.4538 49.8231 39.4131 50.3388 39.3316C50.8545 39.2367 51.2752 39.1077 51.6009 38.9449V35.179H48.9139C48.6425 35.179 48.4525 35.1247 48.3439 35.0161C48.2353 34.894 48.1811 34.704 48.1811 34.4462V33.9169C48.1811 33.6591 48.2353 33.4826 48.3439 33.3876C48.4525 33.2791 48.6425 33.2248 48.9139 33.2248H53.209C53.5076 33.2248 53.7179 33.2994 53.8401 33.4487C53.9758 33.5844 54.0436 33.8016 54.0436 34.1001V39.4741C54.0436 39.6777 54.0233 39.8338 53.9826 39.9423C53.9419 40.0373 53.8536 40.1255 53.7179 40.207C52.4694 40.9941 50.7731 41.3876 48.6289 41.3876Z" fill="#4B9B9B"/>
</svg>
