<svg width="80" height="76" viewBox="0 0 80 76" fill="none" xmlns="http://www.w3.org/2000/svg">
<circle cx="45.7534" cy="40.822" r="34.2466" fill="#4B9B9B"/>
<circle cx="34.2466" cy="34.2466" r="34.2466" fill="#FF9D00"/>
<path d="M15.3807 41.0823C15.109 41.0823 14.912 41.0212 14.7898 40.8989C14.6811 40.7767 14.6268 40.5933 14.6268 40.3488V27.9813C14.6268 27.7232 14.6811 27.5331 14.7898 27.4108C14.912 27.2886 15.109 27.2275 15.3807 27.2275H23.8566C24.1282 27.2275 24.3116 27.2818 24.4067 27.3904C24.5153 27.4991 24.5697 27.6825 24.5697 27.9406V28.4907C24.5697 28.7488 24.5153 28.9389 24.4067 29.0612C24.3116 29.1698 24.1282 29.2242 23.8566 29.2242H17.2348V33.1769H22.0432C22.3149 33.1769 22.505 33.2312 22.6137 33.3399C22.7224 33.4485 22.7767 33.6319 22.7767 33.89V34.3994C22.7767 34.6574 22.7224 34.8476 22.6137 34.9699C22.505 35.0785 22.3149 35.1329 22.0432 35.1329H17.2348V39.1059H23.8362C24.1078 39.1059 24.298 39.167 24.4067 39.2893C24.5153 39.398 24.5697 39.5813 24.5697 39.8394V40.3895C24.5697 40.634 24.5153 40.8106 24.4067 40.9193C24.298 41.0279 24.1078 41.0823 23.8362 41.0823H15.3807ZM27.7313 41.0823C27.4596 41.0823 27.2626 41.0212 27.1404 40.8989C27.0317 40.7767 26.9774 40.5933 26.9774 40.3488V27.9813C26.9774 27.7232 27.0317 27.5331 27.1404 27.4108C27.2626 27.2886 27.4664 27.2275 27.7516 27.2275H28.6889C28.879 27.2275 29.0284 27.2546 29.1371 27.3089C29.2458 27.3633 29.3544 27.4719 29.4631 27.6349L36.1868 36.9666V27.9813C36.1868 27.7232 36.2411 27.5331 36.3498 27.4108C36.472 27.2886 36.669 27.2275 36.9406 27.2275H38.0205C38.2922 27.2275 38.4891 27.2886 38.6114 27.4108C38.7336 27.5331 38.7947 27.7232 38.7947 27.9813V40.3488C38.7947 40.5933 38.7336 40.7767 38.6114 40.8989C38.5027 41.0212 38.3057 41.0823 38.0205 41.0823H37.0629C36.8727 41.0823 36.7301 41.0619 36.635 41.0212C36.5399 40.9668 36.4313 40.8582 36.309 40.6952L29.5854 31.3839V40.3488C29.5854 40.5933 29.5242 40.7767 29.402 40.8989C29.2933 41.0212 29.0964 41.0823 28.8111 41.0823H27.7313ZM48.661 41.3879C46.3519 41.3879 44.5657 40.7631 43.3025 39.5134C42.0393 38.2638 41.4076 36.4776 41.4076 34.1549C41.4076 31.8457 42.0393 30.0663 43.3025 28.8167C44.5793 27.5534 46.3655 26.9218 48.661 26.9218C49.5847 26.9218 50.4472 27.0169 51.2486 27.2071C52.05 27.3972 52.7156 27.6689 53.2454 28.0221C53.3676 28.1036 53.4287 28.1919 53.4287 28.2869C53.4287 28.3549 53.4016 28.4364 53.3472 28.5314L52.7564 29.5502C52.6749 29.6724 52.5934 29.7335 52.5119 29.7335C52.4711 29.7335 52.3828 29.6996 52.247 29.6317C51.3233 29.1155 50.2231 28.8574 48.9463 28.8574C47.3978 28.8574 46.1821 29.2989 45.2992 30.1818C44.4163 31.0511 43.9749 32.3755 43.9749 34.1549C43.9749 35.9478 44.4027 37.279 45.2585 38.1483C46.1142 39.0176 47.2891 39.4523 48.7833 39.4523C49.3266 39.4523 49.8564 39.4115 50.3725 39.33C50.8887 39.235 51.3098 39.1059 51.6358 38.9429V35.1736H48.9463C48.6746 35.1736 48.4845 35.1193 48.3758 35.0106C48.2671 34.8884 48.2128 34.6982 48.2128 34.4401V33.9104C48.2128 33.6523 48.2671 33.4757 48.3758 33.3806C48.4845 33.272 48.6746 33.2176 48.9463 33.2176H53.2454C53.5442 33.2176 53.7547 33.2923 53.877 33.4417C54.0128 33.5776 54.0807 33.7949 54.0807 34.0937V39.4727C54.0807 39.6764 54.0604 39.8326 54.0196 39.9413C53.9789 40.0364 53.8906 40.1247 53.7547 40.2062C52.5051 40.994 50.8072 41.3879 48.661 41.3879Z" fill="#4B9B9B"/>
<circle cx="45.7534" cy="40.822" r="34.2466" fill="#4B9B9B" fill-opacity="0.85"/>
<path d="M31.4952 33.0914C33.4584 33.0914 34.8888 33.477 35.7862 34.2483C36.6837 35.0195 37.1324 36.1063 37.1324 37.5086C37.1324 38.1256 37.0272 38.7216 36.8169 39.2965C36.6206 39.8574 36.291 40.3622 35.8283 40.811C35.3655 41.2597 34.7485 41.6173 33.9773 41.8837C33.206 42.1361 32.2595 42.2623 31.1377 42.2623H29.4128V48.1099H27.5198V33.0914H31.4952ZM31.327 34.711H29.4128V40.6427H30.9273C31.8809 40.6427 32.6732 40.5445 33.3042 40.3482C33.9352 40.1379 34.405 39.8083 34.7135 39.3596C35.022 38.9109 35.1762 38.3219 35.1762 37.5927C35.1762 36.6252 34.8677 35.903 34.2507 35.4262C33.6337 34.9494 32.6591 34.711 31.327 34.711ZM47.1756 43.8399C46.7269 44.8355 46.2712 45.6699 45.8084 46.343C45.3597 47.0021 44.8268 47.4999 44.2098 47.8364C43.5928 48.1589 42.8075 48.3202 41.854 48.3202C41.4613 48.3202 41.0897 48.2922 40.7391 48.2361C40.4026 48.18 40.0941 48.1029 39.8136 48.0047V46.1326C40.0941 46.2588 40.3956 46.364 40.7181 46.4482C41.0406 46.5183 41.3772 46.5533 41.7277 46.5533C42.2466 46.5533 42.6883 46.4832 43.0529 46.343C43.4315 46.1887 43.7611 45.9433 44.0415 45.6068C44.336 45.2702 44.6094 44.8215 44.8619 44.2606L39.0774 33.0914H41.1598L45.3456 41.3579C45.4017 41.456 45.4578 41.5752 45.5139 41.7154C45.57 41.8416 45.6261 41.9749 45.6822 42.1151C45.7523 42.2553 45.8084 42.3885 45.8505 42.5147H45.9346C45.9767 42.4166 46.0187 42.3044 46.0608 42.1782C46.1169 42.038 46.166 41.9048 46.2081 41.7785C46.2641 41.6383 46.3132 41.5191 46.3553 41.421L49.9732 33.0914H51.9714L47.1756 43.8399ZM60.8744 34.5428C60.0751 34.5428 59.3529 34.683 58.7078 34.9634C58.0628 35.2299 57.5159 35.6295 57.0672 36.1624C56.6184 36.6812 56.2749 37.3193 56.0365 38.0765C55.7981 38.8197 55.6789 39.6611 55.6789 40.6006C55.6789 41.8346 55.8682 42.9074 56.2468 43.8189C56.6395 44.7304 57.2144 45.4315 57.9716 45.9223C58.7429 46.4131 59.7035 46.6585 60.8533 46.6585C61.5124 46.6585 62.1364 46.6024 62.7254 46.4902C63.3143 46.378 63.8893 46.2378 64.4502 46.0695V47.7102C63.8893 47.9206 63.3073 48.0748 62.7043 48.173C62.1154 48.2711 61.4072 48.3202 60.5799 48.3202C59.0514 48.3202 57.7753 48.0047 56.7516 47.3737C55.728 46.7426 54.9567 45.8452 54.4379 44.6813C53.9331 43.5174 53.6806 42.1502 53.6806 40.5796C53.6806 39.4437 53.8349 38.4061 54.1434 37.4665C54.4659 36.527 54.9287 35.7137 55.5317 35.0265C56.1487 34.3394 56.9059 33.8136 57.8034 33.449C58.7008 33.0704 59.7315 32.881 60.8954 32.881C61.6667 32.881 62.4099 32.9582 63.125 33.1124C63.8402 33.2667 64.4782 33.484 65.0391 33.7645L64.2819 35.3631C63.8192 35.1528 63.3003 34.9634 62.7254 34.7952C62.1645 34.6269 61.5475 34.5428 60.8744 34.5428Z" fill="#FF9D00"/>
</svg>
